<?xml version="1.0" encoding="UTF-8" standalone="no"?>
<!DOCTYPE svg PUBLIC "-//W3C//DTD SVG 1.1//EN" "http://www.w3.org/Graphics/SVG/1.1/DTD/svg11.dtd">
<svg width="100%" height="100%" viewBox="0 0 64 64" version="1.1" xmlns="http://www.w3.org/2000/svg" xmlns:xlink="http://www.w3.org/1999/xlink" xml:space="preserve" xmlns:serif="http://www.serif.com/" style="fill-rule:evenodd;clip-rule:evenodd;stroke-linejoin:round;stroke-miterlimit:2;">
    <rect x="-25" y="-16" width="124" height="103" style="fill:rgb(70,70,70);"/>
    <path d="M32,64L32,31.984L11,64L32,64Z" style="fill:rgb(235,170,235);"/>
    <path d="M32,0L32,32.016L53,0L32,0Z" style="fill:rgb(235,170,235);"/>
    <path d="M-0.032,32C-0.032,32 -0.066,14.016 0,0C9.333,0 32,32 32,32C32,32 52.667,64 64,64C64.022,50.147 63.867,32 63.867,32L-0.032,32Z" style="fill:rgb(0,235,245);"/>
    <path d="M12.063,64.687L54.063,-0.313C54.442,-0.9 54.273,-1.684 53.687,-2.063C53.1,-2.442 52.316,-2.273 51.937,-1.687L9.937,63.313C9.558,63.9 9.727,64.684 10.313,65.063C10.9,65.442 11.684,65.273 12.063,64.687Z" style="fill:rgb(235,0,175);"/>
    <path d="M0,1.266C0.944,1.266 2.038,1.691 3.253,2.375C5.341,3.549 7.705,5.492 10.155,7.828C19.71,16.94 30.435,31.982 30.948,32.704C31.405,33.408 41.394,48.729 51.221,58.008C55.778,62.311 60.371,65.266 64,65.266C64.698,65.266 65.266,64.698 65.266,64C65.266,63.302 64.698,62.734 64,62.734C62.815,62.734 61.521,62.309 60.147,61.603C57.872,60.432 55.424,58.495 52.959,56.168C43.09,46.849 33.063,31.313 33.063,31.313C33.053,31.298 33.043,31.283 33.033,31.269C33.033,31.269 21.84,15.474 11.901,5.996C9.277,3.493 6.732,1.427 4.494,0.169C2.826,-0.77 1.296,-1.266 0,-1.266C-0.698,-1.266 -1.266,-0.698 -1.266,0C-1.266,0.698 -0.698,1.266 0,1.266Z" style="fill:rgb(0,104,206);"/>
</svg>
